<svg width="35" height="35" viewBox="0 0 35 35" fill="none" xmlns="http://www.w3.org/2000/svg">
<rect width="35" height="35" rx="12" fill="white"/>
<rect x="0.5" y="0.5" width="34" height="34" rx="11.5" stroke="#B3B3B3" stroke-opacity="0.3"/>
<path d="M26.0435 18.6614C25.8831 18.4789 25.7947 18.2443 25.7947 18.0014C25.7947 17.7585 25.8831 17.5238 26.0435 17.3414L27.3235 15.9014C27.4645 15.744 27.5521 15.5461 27.5736 15.3359C27.5952 15.1257 27.5496 14.914 27.4435 14.7314L25.4435 11.2714C25.3384 11.0889 25.1783 10.9442 24.9862 10.858C24.7941 10.7719 24.5796 10.7485 24.3735 10.7914L22.4935 11.1714C22.2542 11.2208 22.0052 11.1809 21.7933 11.0594C21.5815 10.9378 21.4214 10.7428 21.3435 10.5114L20.7335 8.68136C20.6664 8.48274 20.5386 8.31022 20.3681 8.1882C20.1976 8.06618 19.9931 8.00082 19.7835 8.00136H15.7835C15.5654 7.98998 15.3496 8.05029 15.169 8.17307C14.9884 8.29586 14.853 8.47438 14.7835 8.68136L14.2235 10.5114C14.1455 10.7428 13.9854 10.9378 13.7736 11.0594C13.5617 11.1809 13.3127 11.2208 13.0735 11.1714L11.1435 10.7914C10.948 10.7637 10.7488 10.7946 10.5708 10.88C10.3928 10.9654 10.2442 11.1016 10.1435 11.2714L8.14345 14.7314C8.03461 14.912 7.98567 15.1224 8.00363 15.3326C8.02159 15.5427 8.10553 15.7418 8.24345 15.9014L9.51345 17.3414C9.67377 17.5238 9.76219 17.7585 9.76219 18.0014C9.76219 18.2443 9.67377 18.4789 9.51345 18.6614L8.24345 20.1014C8.10553 20.2609 8.02159 20.46 8.00363 20.6701C7.98567 20.8803 8.03461 21.0907 8.14345 21.2714L10.1435 24.7314C10.2485 24.9138 10.4086 25.0585 10.6007 25.1447C10.7928 25.2309 11.0073 25.2542 11.2135 25.2114L13.0935 24.8314C13.3327 24.7819 13.5817 24.8218 13.7936 24.9434C14.0054 25.0649 14.1655 25.2599 14.2435 25.4914L14.8535 27.3214C14.923 27.5283 15.0584 27.7069 15.239 27.8296C15.4196 27.9524 15.6354 28.0127 15.8535 28.0014H19.8535C20.0631 28.0019 20.2676 27.9365 20.4381 27.8145C20.6086 27.6925 20.7364 27.52 20.8035 27.3214L21.4135 25.4914C21.4915 25.2599 21.6515 25.0649 21.8633 24.9434C22.0752 24.8218 22.3242 24.7819 22.5635 24.8314L24.4435 25.2114C24.6496 25.2542 24.8641 25.2309 25.0562 25.1447C25.2483 25.0585 25.4084 24.9138 25.5135 24.7314L27.5135 21.2714C27.6196 21.0887 27.6652 20.877 27.6436 20.6669C27.6221 20.4567 27.5345 20.2587 27.3935 20.1014L26.0435 18.6614ZM24.5535 20.0014L25.3535 20.9014L24.0735 23.1214L22.8935 22.8814C22.1732 22.7341 21.424 22.8565 20.788 23.2252C20.1521 23.5938 19.6736 24.1832 19.4435 24.8814L19.0635 26.0014H16.5035L16.1435 24.8614C15.9133 24.1632 15.4348 23.5738 14.7989 23.2052C14.1629 22.8365 13.4137 22.7141 12.6935 22.8614L11.5135 23.1014L10.2135 20.8914L11.0135 19.9914C11.5054 19.4413 11.7774 18.7293 11.7774 17.9914C11.7774 17.2534 11.5054 16.5414 11.0135 15.9914L10.2135 15.0914L11.4935 12.8914L12.6735 13.1314C13.3937 13.2786 14.1429 13.1562 14.7789 12.7876C15.4148 12.4189 15.8933 11.8295 16.1235 11.1314L16.5035 10.0014H19.0635L19.4435 11.1414C19.6736 11.8395 20.1521 12.4289 20.788 12.7976C21.424 13.1662 22.1732 13.2886 22.8935 13.1414L24.0735 12.9014L25.3535 15.1214L24.5535 16.0214C24.067 16.5701 23.7984 17.278 23.7984 18.0114C23.7984 18.7447 24.067 19.4526 24.5535 20.0014ZM17.7835 14.0014C16.9923 14.0014 16.219 14.236 15.5612 14.6755C14.9034 15.115 14.3907 15.7397 14.0879 16.4706C13.7852 17.2015 13.706 18.0058 13.8603 18.7817C14.0147 19.5576 14.3956 20.2704 14.955 20.8298C15.5144 21.3892 16.2272 21.7702 17.0031 21.9245C17.779 22.0788 18.5833 21.9996 19.3142 21.6969C20.0451 21.3941 20.6698 20.8814 21.1093 20.2236C21.5489 19.5658 21.7835 18.7925 21.7835 18.0014C21.7835 16.9405 21.362 15.9231 20.6119 15.1729C19.8617 14.4228 18.8443 14.0014 17.7835 14.0014ZM17.7835 20.0014C17.3879 20.0014 17.0012 19.8841 16.6723 19.6643C16.3434 19.4445 16.0871 19.1322 15.9357 18.7667C15.7843 18.4013 15.7447 17.9991 15.8219 17.6112C15.8991 17.2232 16.0895 16.8669 16.3692 16.5871C16.6489 16.3074 17.0053 16.117 17.3933 16.0398C17.7812 15.9626 18.1834 16.0022 18.5488 16.1536C18.9143 16.305 19.2266 16.5613 19.4464 16.8902C19.6662 17.2191 19.7835 17.6058 19.7835 18.0014C19.7835 18.5318 19.5727 19.0405 19.1977 19.4156C18.8226 19.7906 18.3139 20.0014 17.7835 20.0014Z" fill="#2D2D2D"/>
</svg>
