<svg width="35" height="35" viewBox="0 0 35 35" fill="none" xmlns="http://www.w3.org/2000/svg">
<rect width="35" height="35" rx="12" fill="white"/>
<path d="M17.5 17.5V15.125L24.625 8L27 10.375L19.875 17.5H17.5Z" stroke="#2D2D2D" stroke-width="2.18391" stroke-linecap="round" stroke-linejoin="round"/>
<path d="M13.7 17.5H10.375C9.74511 17.5 9.14102 17.7502 8.69562 18.1956C8.25022 18.641 8 19.2451 8 19.875C8 20.5049 8.25022 21.109 8.69562 21.5544C9.14102 21.9998 9.74511 22.25 10.375 22.25H24.625C25.2549 22.25 25.859 22.5002 26.3044 22.9456C26.7498 23.391 27 23.9951 27 24.625C27 25.2549 26.7498 25.859 26.3044 26.3044C25.859 26.7498 25.2549 27 24.625 27H14.65" stroke="#2D2D2D" stroke-width="2.18391" stroke-linecap="round" stroke-linejoin="round"/>
</svg>
