<svg width="35" height="35" viewBox="0 0 35 35" fill="none" xmlns="http://www.w3.org/2000/svg">
<rect width="35" height="35" rx="12" fill="white"/>
<mask id="mask0_380_2304" style="mask-type:luminance" maskUnits="userSpaceOnUse" x="9" y="9" width="18" height="18">
<path d="M10 15.8945H26V25.1577C26 25.381 25.9113 25.5952 25.7534 25.7531C25.5954 25.9111 25.3812 25.9998 25.1579 25.9998H10.8421C10.6188 25.9998 10.4046 25.9111 10.2466 25.7531C10.0887 25.5952 10 25.381 10 25.1577V15.8945Z" fill="white" stroke="white" stroke-width="1.68421" stroke-linejoin="round"/>
<path d="M10 12.1048C10 11.8815 10.0887 11.6673 10.2466 11.5093C10.4046 11.3514 10.6188 11.2627 10.8421 11.2627H25.1579C25.3812 11.2627 25.5954 11.3514 25.7534 11.5093C25.9113 11.6673 26 11.8815 26 12.1048V15.8943H10V12.1048Z" stroke="white" stroke-width="1.68421" stroke-linejoin="round"/>
<path d="M14.6316 20.9472L17.1579 23.4735L22.2105 18.4209" stroke="black" stroke-width="1.68421" stroke-linecap="round" stroke-linejoin="round"/>
<path d="M14.6316 10V13.3684M21.3684 10V13.3684" stroke="white" stroke-width="1.68421" stroke-linecap="round"/>
</mask>
<g mask="url(#mask0_380_2304)">
<path d="M7.89478 7.89453H28.1053V28.1051H7.89478V7.89453Z" fill="#2D2D2D"/>
</g>
</svg>
