<svg width="35" height="35" viewBox="0 0 35 35" fill="none" xmlns="http://www.w3.org/2000/svg">
<path d="M7.75499 19.7156L8.27199 21.6476C8.87599 23.9026 9.17899 25.0306 9.86399 25.7616C10.4046 26.3384 11.1041 26.7421 11.874 26.9216C12.85 27.1496 13.978 26.8476 16.234 26.2436C18.488 25.6396 19.616 25.3376 20.347 24.6526C20.407 24.5956 20.467 24.5366 20.523 24.4766C20.1824 24.4457 19.8439 24.3956 19.509 24.3266C18.813 24.1886 17.986 23.9666 17.008 23.7046L16.901 23.6756L16.876 23.6696C15.812 23.3836 14.923 23.1456 14.213 22.8896C13.466 22.6196 12.788 22.2866 12.211 21.7466C11.4173 21.003 10.8619 20.0408 10.615 18.9816C10.435 18.2126 10.487 17.4586 10.627 16.6776C10.761 15.9286 11.001 15.0306 11.289 13.9556L11.824 11.9616L11.842 11.8916C9.92199 12.4086 8.91099 12.7146 8.23699 13.3456C7.65949 13.8867 7.25545 14.5869 7.07599 15.3576C6.84799 16.3326 7.14999 17.4606 7.75499 19.7156Z" fill="black"/>
<path fill-rule="evenodd" clip-rule="evenodd" d="M25.83 15.715L25.312 17.647C24.707 19.902 24.405 21.03 23.72 21.761C23.1795 22.3382 22.48 22.7422 21.71 22.922C21.613 22.945 21.515 22.962 21.415 22.974C20.5 23.087 19.383 22.788 17.351 22.244C15.096 21.639 13.968 21.337 13.237 20.652C12.6597 20.1112 12.2556 19.4114 12.076 18.641C11.848 17.665 12.15 16.538 12.755 14.283L13.272 12.351L13.516 11.446C13.971 9.77999 14.277 8.86299 14.864 8.23599C15.4046 7.65919 16.1041 7.25553 16.874 7.07599C17.85 6.84799 18.978 7.14999 21.234 7.75499C23.488 8.35899 24.616 8.66099 25.347 9.34499C25.9245 9.88605 26.3285 10.5862 26.508 11.357C26.736 12.333 26.434 13.46 25.83 15.715ZM16.052 14.805C16.0775 14.7098 16.1215 14.6206 16.1815 14.5425C16.2415 14.4644 16.3164 14.3988 16.4017 14.3496C16.487 14.3004 16.5812 14.2685 16.6789 14.2557C16.7766 14.2429 16.8759 14.2494 16.971 14.275L21.801 15.57C21.8986 15.5931 21.9907 15.6357 22.0716 15.695C22.1525 15.7544 22.2207 15.8294 22.2721 15.9156C22.3235 16.0018 22.3571 16.0974 22.3709 16.1968C22.3846 16.2963 22.3783 16.3974 22.3523 16.4943C22.3262 16.5913 22.281 16.682 22.2193 16.7611C22.1575 16.8402 22.0805 16.9062 21.9929 16.955C21.9052 17.0038 21.8086 17.0346 21.7088 17.0454C21.609 17.0562 21.5081 17.0469 21.412 17.018L16.582 15.724C16.39 15.6724 16.2264 15.5468 16.127 15.3747C16.0277 15.2025 16.0007 14.997 16.052 14.805ZM15.276 17.703C15.3276 17.511 15.4532 17.3474 15.6253 17.248C15.7974 17.1487 16.002 17.1217 16.194 17.173L19.092 17.95C19.1901 17.9726 19.2827 18.0148 19.3641 18.074C19.4456 18.1332 19.5143 18.2082 19.5662 18.2945C19.6181 18.3808 19.652 18.4767 19.666 18.5764C19.68 18.6761 19.6738 18.7776 19.6478 18.8749C19.6217 18.9722 19.5763 19.0632 19.5143 19.1425C19.4523 19.2219 19.375 19.2879 19.2869 19.3368C19.1988 19.3856 19.1018 19.4162 19.0017 19.4267C18.9015 19.4372 18.8003 19.4274 18.704 19.398L15.806 18.622C15.7108 18.5965 15.6216 18.5524 15.5435 18.4924C15.4654 18.4324 15.3998 18.3576 15.3506 18.2723C15.3014 18.187 15.2695 18.0927 15.2567 17.9951C15.2439 17.8974 15.2504 17.7981 15.276 17.703Z" fill="black"/>
<rect width="35" height="35" rx="12" fill="white"/>
<path d="M9.75499 20.7156L10.272 22.6476C10.876 24.9026 11.179 26.0306 11.864 26.7616C12.4046 27.3384 13.1041 27.7421 13.874 27.9216C14.85 28.1496 15.978 27.8476 18.234 27.2436C20.488 26.6396 21.616 26.3376 22.347 25.6526C22.407 25.5956 22.467 25.5366 22.523 25.4766C22.1824 25.4457 21.8439 25.3956 21.509 25.3266C20.813 25.1886 19.986 24.9666 19.008 24.7046L18.901 24.6756L18.876 24.6696C17.812 24.3836 16.923 24.1456 16.213 23.8896C15.466 23.6196 14.788 23.2866 14.211 22.7466C13.4173 22.003 12.8619 21.0408 12.615 19.9816C12.435 19.2126 12.487 18.4586 12.627 17.6776C12.761 16.9286 13.001 16.0306 13.289 14.9556L13.824 12.9616L13.842 12.8916C11.922 13.4086 10.911 13.7146 10.237 14.3456C9.65949 14.8867 9.25545 15.5869 9.07599 16.3576C8.84799 17.3326 9.14999 18.4606 9.75499 20.7156Z" fill="black"/>
<path fill-rule="evenodd" clip-rule="evenodd" d="M27.83 16.715L27.312 18.647C26.707 20.902 26.405 22.03 25.72 22.761C25.1795 23.3382 24.48 23.7422 23.71 23.922C23.613 23.945 23.515 23.962 23.415 23.974C22.5 24.087 21.383 23.788 19.351 23.244C17.096 22.639 15.968 22.337 15.237 21.652C14.6597 21.1112 14.2556 20.4114 14.076 19.641C13.848 18.665 14.15 17.538 14.755 15.283L15.272 13.351L15.516 12.446C15.971 10.78 16.277 9.86299 16.864 9.23599C17.4046 8.65919 18.1041 8.25553 18.874 8.07599C19.85 7.84799 20.978 8.14999 23.234 8.75499C25.488 9.35899 26.616 9.66099 27.347 10.345C27.9245 10.886 28.3285 11.5862 28.508 12.357C28.736 13.333 28.434 14.46 27.83 16.715ZM18.052 15.805C18.0775 15.7098 18.1215 15.6206 18.1815 15.5425C18.2415 15.4644 18.3164 15.3988 18.4017 15.3496C18.487 15.3004 18.5812 15.2685 18.6789 15.2557C18.7766 15.2429 18.8759 15.2494 18.971 15.275L23.801 16.57C23.8986 16.5931 23.9907 16.6357 24.0716 16.695C24.1525 16.7544 24.2207 16.8294 24.2721 16.9156C24.3235 17.0018 24.3571 17.0974 24.3709 17.1968C24.3846 17.2963 24.3783 17.3974 24.3523 17.4943C24.3262 17.5913 24.281 17.682 24.2193 17.7611C24.1575 17.8402 24.0805 17.9062 23.9929 17.955C23.9052 18.0038 23.8086 18.0346 23.7088 18.0454C23.609 18.0562 23.5081 18.0469 23.412 18.018L18.582 16.724C18.39 16.6724 18.2264 16.5468 18.127 16.3747C18.0277 16.2025 18.0007 15.997 18.052 15.805ZM17.276 18.703C17.3276 18.511 17.4532 18.3474 17.6253 18.248C17.7974 18.1487 18.002 18.1217 18.194 18.173L21.092 18.95C21.1901 18.9726 21.2827 19.0148 21.3641 19.074C21.4456 19.1332 21.5143 19.2082 21.5662 19.2945C21.6181 19.3808 21.652 19.4767 21.666 19.5764C21.68 19.6761 21.6738 19.7776 21.6478 19.8749C21.6217 19.9722 21.5763 20.0632 21.5143 20.1425C21.4523 20.2219 21.375 20.2879 21.2869 20.3368C21.1988 20.3856 21.1018 20.4162 21.0017 20.4267C20.9015 20.4372 20.8003 20.4274 20.704 20.398L17.806 19.622C17.7108 19.5965 17.6216 19.5524 17.5435 19.4924C17.4654 19.4324 17.3998 19.3576 17.3506 19.2723C17.3014 19.1869 17.2695 19.0927 17.2567 18.9951C17.2439 18.8974 17.2504 18.7981 17.276 18.703Z" fill="black"/>
</svg>
