<svg width="23" height="18" viewBox="0 0 23 18" fill="none" xmlns="http://www.w3.org/2000/svg">
<path d="M6.17044 14.315C6.17044 15.0557 6.46466 15.766 6.98838 16.2897C7.5121 16.8134 8.22241 17.1076 8.96306 17.1076C9.70371 17.1076 10.414 16.8134 10.9377 16.2897C11.4615 15.766 11.7557 15.0557 11.7557 14.315C11.7557 13.5744 11.4615 12.8641 10.9377 12.3403C10.414 11.8166 9.70371 11.5224 8.96306 11.5224C8.22241 11.5224 7.5121 11.8166 6.98838 12.3403C6.46466 12.8641 6.17044 13.5744 6.17044 14.315ZM17.3409 3.14455C17.3409 2.77782 17.4132 2.41467 17.5535 2.07586C17.6938 1.73704 17.8995 1.42919 18.1589 1.16987C18.6826 0.64615 19.3929 0.351929 20.1335 0.351929C20.8742 0.351929 21.5845 0.64615 22.1082 1.16987C22.6319 1.69359 22.9262 2.4039 22.9262 3.14455V5.93717H17.3409V3.14455ZM17.3409 5.93717H22.9262V11.5224H17.3409V5.93717ZM17.3409 11.5224H22.9262V14.315C22.9262 15.0557 22.6319 15.766 22.1082 16.2897C21.5845 16.8134 20.8742 17.1076 20.1335 17.1076C19.3929 17.1076 18.6826 16.8134 18.1589 16.2897C17.6351 15.766 17.3409 15.0557 17.3409 14.315V11.5224ZM0.585205 3.14455C0.585205 2.77782 0.657438 2.41467 0.797781 2.07586C0.938123 1.73704 1.14383 1.42919 1.40314 1.16987C1.92686 0.64615 2.63718 0.351929 3.37782 0.351929C4.11847 0.351929 4.82879 0.64615 5.3525 1.16987C5.87622 1.69359 6.17044 2.4039 6.17044 3.14455C6.17044 3.8852 5.87622 4.59551 5.3525 5.11923C4.82879 5.64294 4.11847 5.93717 3.37782 5.93717C3.01109 5.93717 2.64795 5.86493 2.30913 5.72459C1.97032 5.58425 1.66246 5.37855 1.40314 5.11923C1.14383 4.85991 0.938123 4.55205 0.797781 4.21324C0.657438 3.87442 0.585205 3.51128 0.585205 3.14455Z" fill="black"/>
</svg>
