<svg width="39" height="39" viewBox="0 0 39 39" fill="none" xmlns="http://www.w3.org/2000/svg">
<rect width="39" height="39" rx="12" fill="white"/>
<path d="M15.6667 29.8C16.0549 29.8 16.3934 29.8406 16.6823 29.9219C16.9712 30.0031 17.242 30.1205 17.4948 30.274C17.7476 30.4274 17.9868 30.6125 18.2125 30.8292C18.4382 31.0458 18.6819 31.2806 18.9438 31.5333H7V10.7333H8.73333V29.8H15.6667ZM15.6667 9C16.2715 9 16.8674 9.07222 17.4542 9.21667C18.041 9.36111 18.6007 9.58681 19.1333 9.89375V29.326C18.6458 28.9198 18.1042 28.6083 17.5083 28.3917C16.9125 28.175 16.2986 28.0667 15.6667 28.0667H10.4667V9H15.6667ZM33 10.7333V31.5333H21.0563C21.309 31.2806 21.5483 31.0458 21.774 30.8292C21.9997 30.6125 22.2389 30.4319 22.4917 30.2875C22.7444 30.1431 23.0153 30.0257 23.3042 29.9354C23.5931 29.8451 23.9361 29.8 24.3333 29.8H31.2667V10.7333H33ZM24.3333 28.0667C23.7014 28.0667 23.0875 28.175 22.4917 28.3917C21.8958 28.6083 21.3542 28.9198 20.8667 29.326V9.89375C21.3993 9.59583 21.959 9.37465 22.5458 9.23021C23.1326 9.08576 23.7285 9.00903 24.3333 9H29.5333V28.0667H24.3333Z" fill="#247BA0"/>
</svg>
