<svg width="39" height="39" viewBox="0 0 39 39" fill="none" xmlns="http://www.w3.org/2000/svg">
<rect width="39" height="39" rx="12" fill="white"/>
<path d="M29.7375 23.7C28.6006 23.7 27.6474 23.3152 26.8779 22.5457C26.1084 21.7762 25.7241 20.8235 25.725 19.6875C25.725 18.5506 26.1098 17.5974 26.8793 16.8279C27.6488 16.0584 28.6015 15.6741 29.7375 15.675C30.8744 15.675 31.8276 16.0598 32.5971 16.8293C33.3666 17.5988 33.7509 18.5515 33.75 19.6875C33.75 20.8244 33.3652 21.7776 32.5957 22.5471C31.8262 23.3166 30.8735 23.7009 29.7375 23.7ZM16.3625 26.375L14.49 24.4691L17.9341 21.025H7V18.35H17.9341L14.49 14.8725L16.3625 13L23.05 19.6875L16.3625 26.375Z" fill="#247BA0"/>
</svg>
