<svg width="39" height="39" viewBox="0 0 39 39" fill="none" xmlns="http://www.w3.org/2000/svg">
<rect width="39" height="39" rx="12" fill="white"/>
<path d="M18.8445 16.8246C18.8905 16.9511 18.925 17.0661 18.925 17.204V23.2053C18.925 23.7801 18.7065 24.3319 18.3155 24.7573L15.107 28.2638L11.197 24.3549L12.6 22.9523L15.82 8.9954C15.8902 8.68833 16.0711 8.41788 16.3282 8.23577C16.5853 8.05365 16.9005 7.97263 17.2135 8.00819C17.5266 8.04376 17.8156 8.19341 18.0252 8.42855C18.2349 8.66369 18.3505 8.96783 18.35 9.28281V14.9852C18.1623 14.9351 17.9692 14.9081 17.775 14.9047C16.51 14.9047 15.475 15.9394 15.475 17.204V20.653C15.475 20.9749 15.728 21.2278 16.05 21.2278C16.372 21.2278 16.625 20.9749 16.625 20.653V17.204C16.625 16.5717 17.1425 16.0543 17.775 16.0543C17.9935 16.0543 18.1775 16.1348 18.35 16.2383C18.488 16.3188 18.5915 16.4222 18.695 16.5372C18.7295 16.5832 18.764 16.6292 18.787 16.6867C18.81 16.7326 18.833 16.7786 18.8445 16.8246ZM8 27.551L12.6 31L13.9455 29.5399L9.978 25.5736L8 27.551ZM26.4 22.9523L23.18 8.9954C23.1098 8.68833 22.9289 8.41788 22.6718 8.23577C22.4147 8.05365 22.0995 7.97263 21.7864 8.00819C21.4734 8.04376 21.1844 8.19341 20.9748 8.42855C20.7651 8.66369 20.6495 8.96783 20.65 9.28281V14.9852C20.834 14.9392 21.0295 14.9047 21.225 14.9047C22.49 14.9047 23.525 15.9394 23.525 17.204V20.653C23.525 20.9749 23.272 21.2278 22.95 21.2278C22.628 21.2278 22.375 20.9749 22.375 20.653V17.204C22.375 16.5717 21.8575 16.0543 21.225 16.0543C21.0065 16.0543 20.8225 16.1348 20.65 16.2383C20.512 16.3188 20.4085 16.4222 20.3165 16.5372C20.282 16.5832 20.236 16.6292 20.213 16.6867C20.19 16.7326 20.167 16.7786 20.1555 16.8246C20.1095 16.9511 20.075 17.0661 20.075 17.204V23.2053C20.075 23.7801 20.2935 24.3319 20.6845 24.7573L23.893 28.2638L27.803 24.3549L26.4 22.9523ZM29.022 25.5736L25.0545 29.5399L26.4 31L31 27.551L29.022 25.5736Z" fill="#247BA0"/>
</svg>
