<svg width="39" height="39" viewBox="0 0 39 39" fill="none" xmlns="http://www.w3.org/2000/svg">
<rect width="39" height="39" rx="12" fill="white"/>
<path d="M17.875 19.875V17.1562L26.0312 9L28.75 11.7187L20.5937 19.875H17.875Z" stroke="#247BA0" stroke-width="2.5" stroke-linecap="round" stroke-linejoin="round"/>
<path d="M13.525 19.875H9.71875C8.99769 19.875 8.30617 20.1614 7.7963 20.6713C7.28644 21.1812 7 21.8727 7 22.5937C7 23.3148 7.28644 24.0063 7.7963 24.5162C8.30617 25.0261 8.99769 25.3125 9.71875 25.3125H26.0312C26.7523 25.3125 27.4438 25.5989 27.9537 26.1088C28.4636 26.6187 28.75 27.3102 28.75 28.0312C28.75 28.7523 28.4636 29.4438 27.9537 29.9537C27.4438 30.4636 26.7523 30.75 26.0312 30.75H14.6125" stroke="#247BA0" stroke-width="2.5" stroke-linecap="round" stroke-linejoin="round"/>
</svg>
