<svg width="40" height="39" viewBox="0 0 40 39" fill="none" xmlns="http://www.w3.org/2000/svg">
<rect x="0.5" width="39" height="39" rx="12" fill="white"/>
<path d="M11.1316 27.8C11.8295 27.8 12.4989 28.0739 12.9924 28.5615C13.4859 29.0491 13.7632 29.7104 13.7632 30.4C13.7632 31.0896 13.4859 31.7509 12.9924 32.2385C12.4989 32.7261 11.8295 33 11.1316 33C10.4336 33 9.76429 32.7261 9.27077 32.2385C8.77725 31.7509 8.5 31.0896 8.5 30.4C8.5 29.7104 8.77725 29.0491 9.27077 28.5615C9.76429 28.0739 10.4336 27.8 11.1316 27.8ZM11.1316 29.75C10.9571 29.75 10.7898 29.8185 10.6664 29.9404C10.543 30.0623 10.4737 30.2276 10.4737 30.4C10.4737 30.5724 10.543 30.7377 10.6664 30.8596C10.7898 30.9815 10.9571 31.05 11.1316 31.05C11.3061 31.05 11.4734 30.9815 11.5968 30.8596C11.7202 30.7377 11.7895 30.5724 11.7895 30.4C11.7895 30.2276 11.7202 30.0623 11.5968 29.9404C11.4734 29.8185 11.3061 29.75 11.1316 29.75ZM18.3684 23.9C19.2408 23.9 20.0775 24.2424 20.6944 24.8519C21.3113 25.4614 21.6579 26.288 21.6579 27.15C21.6579 28.012 21.3113 28.8386 20.6944 29.4481C20.0775 30.0576 19.2408 30.4 18.3684 30.4C17.496 30.4 16.6593 30.0576 16.0424 29.4481C15.4255 28.8386 15.0789 28.012 15.0789 27.15C15.0789 26.288 15.4255 25.4614 16.0424 24.8519C16.6593 24.2424 17.496 23.9 18.3684 23.9ZM18.3684 25.85C18.0195 25.85 17.6848 25.987 17.438 26.2308C17.1913 26.4746 17.0526 26.8052 17.0526 27.15C17.0526 27.4948 17.1913 27.8254 17.438 28.0692C17.6848 28.313 18.0195 28.45 18.3684 28.45C18.7174 28.45 19.0521 28.313 19.2988 28.0692C19.5456 27.8254 19.6842 27.4948 19.6842 27.15C19.6842 26.8052 19.5456 26.4746 19.2988 26.2308C19.0521 25.987 18.7174 25.85 18.3684 25.85ZM21.425 7C23.0987 7.00033 24.7188 7.58286 26.0012 8.64543C27.2836 9.708 28.1463 11.1827 28.4382 12.811H28.5461C29.8599 12.811 31.12 13.3267 32.049 14.2446C32.9781 15.1625 33.5 16.4074 33.5 17.7055C33.5 19.0036 32.9781 20.2485 32.049 21.1664C31.12 22.0843 29.8599 22.6 28.5461 22.6H14.3053C12.9914 22.6 11.7313 22.0843 10.8023 21.1664C9.87325 20.2485 9.35132 19.0036 9.35132 17.7055C9.35132 16.4074 9.87325 15.1625 10.8023 14.2446C11.7313 13.3267 12.9914 12.811 14.3053 12.811H14.4118C14.7037 11.1827 15.5664 9.708 16.8488 8.64543C18.1312 7.58286 19.7513 7.00033 21.425 7ZM21.4329 8.9474C20.1076 8.94705 18.8328 9.44985 17.8721 10.3518C16.9114 11.2538 16.3382 12.4861 16.2711 13.7938C16.2596 14.0248 16.1586 14.2425 15.9891 14.402C15.8196 14.5615 15.5946 14.6504 15.3605 14.6505H14.4395C14.0314 14.636 13.6245 14.7028 13.2431 14.8471C12.8617 14.9914 12.5137 15.2101 12.2198 15.4902C11.9259 15.7703 11.6921 16.1061 11.5324 16.4774C11.3728 16.8488 11.2905 17.2481 11.2905 17.6515C11.2905 18.055 11.3728 18.4543 11.5324 18.8257C11.6921 19.197 11.9259 19.5328 12.2198 19.8129C12.5137 20.093 12.8617 20.3117 13.2431 20.456C13.6245 20.6003 14.0314 20.6671 14.4395 20.6526H28.4263C28.8344 20.6671 29.2413 20.6003 29.6227 20.456C30.004 20.3117 30.3521 20.093 30.646 19.8129C30.9399 19.5328 31.1737 19.197 31.3333 18.8257C31.493 18.4543 31.5753 18.055 31.5753 17.6515C31.5753 17.2481 31.493 16.8488 31.3333 16.4774C31.1737 16.1061 30.9399 15.7703 30.646 15.4902C30.3521 15.2101 30.004 14.9914 29.6227 14.8471C29.2413 14.7028 28.8344 14.636 28.4263 14.6505H27.5053C27.2712 14.6504 27.0461 14.5615 26.8766 14.402C26.7072 14.2425 26.6062 14.0248 26.5947 13.7938C26.5276 12.4861 25.9544 11.2538 24.9937 10.3518C24.033 9.44985 22.7582 8.94705 21.4329 8.9474Z" fill="#247BA0"/>
</svg>
